<svg width="13.71" height="16.54" viewBox="0 0 13.7071 16.5391" fill="none" xmlns="http://www.w3.org/2000/svg">
<g id="Group 3">
<g id="Group 2">
<path id="Ellipse 3" d="M10.9236 14.3342C9.90527 14.8527 9.40211 15.9061 9.40211 15.9061C9.40211 15.9061 10.5499 16.1186 11.5682 15.6001C12.5865 15.0815 13.0897 14.0282 13.0897 14.0282C13.0897 14.0282 11.9419 13.8156 10.9236 14.3342Z" fill="var(--fill-0, #D3A500)"/>
<path id="Ellipse 6" d="M8.16834 13.2898C7.08945 13.6664 6.44892 14.6423 6.44892 14.6423C6.44892 14.6423 7.55761 15.0076 8.6365 14.631C9.71538 14.2544 10.3559 13.2785 10.3559 13.2785C10.3559 13.2785 9.24722 12.9132 8.16834 13.2898Z" fill="var(--fill-0, #D3A500)"/>
<path id="Ellipse 7" d="M5.8513 11.6603C4.84672 11.8872 4.17334 12.6955 4.17334 12.6955C4.17334 12.6955 5.12872 13.136 6.13331 12.9092C7.13789 12.6823 7.81126 11.874 7.81126 11.874C7.81126 11.874 6.85588 11.4335 5.8513 11.6603Z" fill="var(--fill-0, #D3A500)"/>
<path id="Ellipse 9" d="M3.70685 9.3162C2.67708 9.3014 1.83308 9.92949 1.83308 9.92949C1.83308 9.92949 2.65868 10.5816 3.68845 10.5964C4.71822 10.6112 5.56222 9.98308 5.56222 9.98308C5.56222 9.98308 4.73662 9.33099 3.70685 9.3162Z" fill="var(--fill-0, #D3A500)"/>
<path id="Ellipse 11" d="M2.0798 6.5287C1.06996 6.32654 0.125659 6.79034 0.125659 6.79034C0.125659 6.79034 0.818637 7.58193 1.82848 7.7841C2.83832 7.98627 3.78262 7.52246 3.78262 7.52246C3.78262 7.52246 3.08964 6.73087 2.0798 6.5287Z" fill="var(--fill-0, #D3A500)"/>
<path id="Ellipse 13" d="M1.7411 3.39322C1.13947 2.97339 0.390812 3.00701 0.390812 3.00701C0.390812 3.00701 0.617576 3.7213 1.2192 4.14113C1.82082 4.56096 2.56949 4.52734 2.56949 4.52734C2.56949 4.52734 2.34272 3.81304 1.7411 3.39322Z" fill="var(--fill-0, #D3A500)"/>
<path id="Ellipse 4" d="M11.5023 12.5564C12.0208 13.5747 13.0741 14.0779 13.0741 14.0779C13.0741 14.0779 13.2867 12.9301 12.7681 11.9117C12.2496 10.8934 11.1963 10.3903 11.1963 10.3903C11.1963 10.3903 10.9837 11.5381 11.5023 12.5564Z" fill="var(--fill-0, #D3A500)"/>
<path id="Ellipse 5" d="M8.9996 11.5974C9.3762 12.6763 10.3521 13.3168 10.3521 13.3168C10.3521 13.3168 10.7174 12.2081 10.3408 11.1292C9.96422 10.0503 8.98832 9.40975 8.98832 9.40975C8.98832 9.40975 8.62301 10.5185 8.9996 11.5974Z" fill="var(--fill-0, #D3A500)"/>
<path id="Ellipse 8" d="M6.76879 10.2297C6.99564 11.2343 7.80396 11.9077 7.80396 11.9077C7.80396 11.9077 8.24447 10.9523 8.01762 9.94768C7.79077 8.94308 6.98245 8.2697 6.98245 8.2697C6.98245 8.2697 6.54193 9.2251 6.76879 10.2297Z" fill="var(--fill-0, #D3A500)"/>
<path id="Ellipse 10" d="M4.93378 8.14064C4.91898 9.17042 5.54706 10.0144 5.54706 10.0144C5.54706 10.0144 6.19913 9.18882 6.21393 8.15903C6.22872 7.12924 5.60065 6.28524 5.60065 6.28524C5.60065 6.28524 4.94857 7.11085 4.93378 8.14064Z" fill="var(--fill-0, #D3A500)"/>
<path id="Ellipse 12" d="M3.50062 5.59637C3.29846 6.60622 3.76226 7.55054 3.76226 7.55054C3.76226 7.55054 4.55383 6.85755 4.756 5.84769C4.95816 4.83783 4.49436 3.89352 4.49436 3.89352C4.49436 3.89352 3.70279 4.58651 3.50062 5.59637Z" fill="var(--fill-0, #D3A500)"/>
<path id="Ellipse 14" d="M2.93451 3.18951C2.51469 3.79114 2.54831 4.53982 2.54831 4.53982C2.54831 4.53982 3.26259 4.31305 3.68242 3.71142C4.10224 3.10978 4.06862 2.36111 4.06862 2.36111C4.06862 2.36111 3.35433 2.58788 2.93451 3.18951Z" fill="var(--fill-0, #D3A500)"/>
<path id="Ellipse 15" d="M1.80104 1.32836C1.80104 2.062 2.25704 2.65673 2.25704 2.65673C2.25704 2.65673 2.71304 2.062 2.71304 1.32836C2.71304 0.594728 2.25704 0 2.25704 0C2.25704 0 1.80104 0.594728 1.80104 1.32836Z" fill="var(--fill-0, #D3A500)"/>
</g>
<path id="Subtract" d="M12.9675 14.2096C12.5602 14.2585 12.1459 14.2868 11.7253 14.2868C11.5095 14.2868 11.2953 14.2774 11.0828 14.2643C11.0184 14.2913 10.954 14.3208 10.8904 14.3532C9.87215 14.8718 9.36889 15.9255 9.36889 15.9255C9.36889 15.9255 10.5166 16.1373 11.5349 15.6188C12.3067 15.2258 12.7823 14.5256 12.9675 14.2096ZM7.73412 13.485C6.89968 13.9253 6.41576 14.6618 6.41576 14.6618C6.42627 14.6652 7.52957 15.0248 8.60326 14.6501C9.00136 14.5111 9.33957 14.2901 9.60814 14.0671C8.95898 13.9316 8.33221 13.7363 7.73412 13.485ZM5.15697 11.9245C4.52942 12.2482 4.14037 12.7145 4.14037 12.7145C4.155 12.7212 5.10353 13.1535 6.10033 12.9284C6.21677 12.9021 6.32829 12.8666 6.43529 12.8268C5.98601 12.5578 5.55851 12.2565 5.15697 11.9245ZM2.96752 9.41959C2.28461 9.58787 1.79955 9.94889 1.79955 9.94889C1.80297 9.95159 2.6275 10.6 3.65502 10.6149C3.71553 10.6158 3.77561 10.6143 3.83471 10.611C3.5185 10.2356 3.22829 9.83795 2.96752 9.41959ZM1.72533 6.50455C0.845275 6.43992 0.0925179 6.80924 0.0925179 6.80924C0.0925179 6.80924 0.785802 7.60121 1.79564 7.80338C1.92122 7.82851 2.04586 7.84258 2.16771 7.84928C1.99125 7.4147 1.84189 6.96627 1.72533 6.50455ZM0.358143 3.02604C0.361556 3.0367 0.589283 3.74316 1.18627 4.15983C1.26194 4.21263 1.34015 4.25809 1.41869 4.29752C1.41534 4.1895 1.41088 4.08116 1.41088 3.97233C1.41088 3.73172 1.42201 3.493 1.43822 3.25651C0.911046 3.00535 0.372403 3.02545 0.358143 3.02604ZM2.1599 0.113929C2.04008 0.300191 1.79467 0.742509 1.77123 1.26725C1.87818 0.872708 2.0088 0.488187 2.1599 0.113929Z" fill="url(#paint0_linear_0_5748)"/>
</g>
<defs>
<linearGradient id="paint0_linear_0_5748" x1="3.24865" y1="3.57254" x2="12.0848" y2="9.46834" gradientUnits="userSpaceOnUse">
<stop stop-color="#DFB10C"/>
<stop offset="1" stop-color="#DDAF0D"/>
</linearGradient>
</defs>
</svg>
