<svg width="120" height="60" viewBox="0 0 120 60" fill="none" xmlns="http://www.w3.org/2000/svg">
<path d="M71.474 30.7458C67.68 30.8698 65.309 31.5498 65.309 34.0658C65.309 35.6958 66.609 37.4478 69.887 37.4478C74.279 37.4478 76.63 35.0558 76.63 31.1178V30.6848L71.475 30.7468L71.474 30.7458ZM80.836 35.9418L80.98 39.4468H77.083C76.98 38.5598 76.939 37.6738 76.939 36.8068C74.836 39.4048 72.319 40.1468 68.835 40.1468C63.68 40.1468 60.917 37.4248 60.917 34.2698C60.917 29.6918 64.67 28.0838 71.217 27.9398C73 27.8998 75 27.8998 76.65 27.8998V27.4458C76.65 24.3938 74.69 23.1458 71.29 23.1458C68.774 23.1458 66.898 24.1978 66.712 25.9918H62.3C62.774 21.4968 67.496 20.3618 71.64 20.3618C76.64 20.3618 80.816 22.1348 80.816 27.3938V35.9508L80.836 35.9418Z" fill="#F5AF02"/>
<path d="M35.203 28.52C35.038 24.602 32.203 23.138 29.183 23.138C25.925 23.138 23.306 24.788 22.853 28.52H35.203ZM22.77 31.304C22.997 35.119 25.616 37.366 29.224 37.366C31.719 37.366 33.946 36.366 34.688 34.129H39.018C38.173 38.624 33.388 40.149 29.285 40.149C21.8 40.149 18.501 36.025 18.501 30.479C18.501 24.355 21.924 20.334 29.368 20.334C35.286 20.334 39.616 23.427 39.616 30.191V31.305L22.77 31.304Z" fill="#E53238"/>
<path d="M50.3602 37.2832C54.2572 37.2832 56.9172 34.4792 56.9172 30.2512C56.9172 26.0232 54.2572 23.2192 50.3602 23.2192C46.4832 23.2192 43.8032 26.0232 43.8032 30.2512C43.8032 34.4792 46.4832 37.2832 50.3602 37.2832ZM39.6152 12.9702H43.8002V23.5072C45.8622 21.0532 48.6872 20.3522 51.4702 20.3522C56.1502 20.3522 61.3272 23.5072 61.3272 30.3122C61.3272 36.0122 57.2032 40.1692 51.3872 40.1692C48.3352 40.1692 45.4902 39.0762 43.7172 36.9112C43.7172 37.7772 43.6772 38.6432 43.5732 39.4682H39.4502L39.5942 35.1382V12.9702H39.6152Z" fill="#0064D2"/>
<path d="M102.178 21.0342L89.2068 46.5002H84.5068L88.2388 39.4272L78.4858 21.0342H83.3938L90.5698 35.4062L97.7248 21.0342H102.178Z" fill="#86B817"/>
</svg>
